<mxfile host="Electron" modified="2024-05-02T12:45:44.242Z" agent="Mozilla/5.0 (Windows NT 10.0; Win64; x64) AppleWebKit/537.36 (KHTML, like Gecko) draw.io/24.2.5 Chrome/120.0.6099.109 Electron/28.1.0 Safari/537.36" etag="jrTJBMUA8VRMiqr6XP5H" version="24.2.5" type="device">
  <diagram id="C5RBs43oDa-KdzZeNtuy" name="Page-1">
    <mxGraphModel dx="1290" dy="629" grid="1" gridSize="10" guides="1" tooltips="1" connect="1" arrows="1" fold="1" page="1" pageScale="1" pageWidth="827" pageHeight="1169" math="0" shadow="0">
      <root>
        <mxCell id="WIyWlLk6GJQsqaUBKTNV-0" />
        <mxCell id="WIyWlLk6GJQsqaUBKTNV-1" parent="WIyWlLk6GJQsqaUBKTNV-0" />
        <mxCell id="uOjxGA-vQLZOeNI9uRZs-0" value="START" style="ellipse;whiteSpace=wrap;html=1;fillColor=#FF9999;" parent="WIyWlLk6GJQsqaUBKTNV-1" vertex="1">
          <mxGeometry x="130" y="60" width="140" height="80" as="geometry" />
        </mxCell>
        <mxCell id="uOjxGA-vQLZOeNI9uRZs-1" value="STOP" style="ellipse;whiteSpace=wrap;html=1;fillColor=#FF9999;" parent="WIyWlLk6GJQsqaUBKTNV-1" vertex="1">
          <mxGeometry x="130" y="800" width="140" height="80" as="geometry" />
        </mxCell>
        <mxCell id="uOjxGA-vQLZOeNI9uRZs-18" value="" style="edgeStyle=orthogonalEdgeStyle;rounded=0;orthogonalLoop=1;jettySize=auto;html=1;" parent="WIyWlLk6GJQsqaUBKTNV-1" source="uOjxGA-vQLZOeNI9uRZs-2" target="uOjxGA-vQLZOeNI9uRZs-9" edge="1">
          <mxGeometry relative="1" as="geometry" />
        </mxCell>
        <mxCell id="uOjxGA-vQLZOeNI9uRZs-2" value="&lt;font style=&quot;font-size: 10px;&quot;&gt;Van-e kapszula?&lt;/font&gt;" style="rhombus;whiteSpace=wrap;html=1;fillColor=#FFFF00;" parent="WIyWlLk6GJQsqaUBKTNV-1" vertex="1">
          <mxGeometry x="150" y="170" width="100" height="60" as="geometry" />
        </mxCell>
        <mxCell id="uOjxGA-vQLZOeNI9uRZs-3" value="" style="endArrow=classic;html=1;rounded=0;exitX=0.5;exitY=1;exitDx=0;exitDy=0;entryX=0.5;entryY=0;entryDx=0;entryDy=0;" parent="WIyWlLk6GJQsqaUBKTNV-1" source="uOjxGA-vQLZOeNI9uRZs-0" target="uOjxGA-vQLZOeNI9uRZs-2" edge="1">
          <mxGeometry width="50" height="50" relative="1" as="geometry">
            <mxPoint x="390" y="320" as="sourcePoint" />
            <mxPoint x="440" y="270" as="targetPoint" />
          </mxGeometry>
        </mxCell>
        <mxCell id="uOjxGA-vQLZOeNI9uRZs-20" style="edgeStyle=orthogonalEdgeStyle;rounded=0;orthogonalLoop=1;jettySize=auto;html=1;exitX=0.5;exitY=1;exitDx=0;exitDy=0;entryX=1;entryY=0.5;entryDx=0;entryDy=0;" parent="WIyWlLk6GJQsqaUBKTNV-1" source="uOjxGA-vQLZOeNI9uRZs-4" target="uOjxGA-vQLZOeNI9uRZs-16" edge="1">
          <mxGeometry relative="1" as="geometry">
            <mxPoint x="200" y="290" as="targetPoint" />
          </mxGeometry>
        </mxCell>
        <mxCell id="uOjxGA-vQLZOeNI9uRZs-4" value="Kapszula vásárlása" style="rounded=0;whiteSpace=wrap;html=1;fillColor=#3333FF;" parent="WIyWlLk6GJQsqaUBKTNV-1" vertex="1">
          <mxGeometry x="320" y="180" width="130" height="40" as="geometry" />
        </mxCell>
        <mxCell id="uOjxGA-vQLZOeNI9uRZs-5" value="" style="endArrow=classic;html=1;rounded=0;entryX=0;entryY=0.5;entryDx=0;entryDy=0;" parent="WIyWlLk6GJQsqaUBKTNV-1" source="uOjxGA-vQLZOeNI9uRZs-2" target="uOjxGA-vQLZOeNI9uRZs-4" edge="1">
          <mxGeometry width="50" height="50" relative="1" as="geometry">
            <mxPoint x="390" y="320" as="sourcePoint" />
            <mxPoint x="440" y="270" as="targetPoint" />
          </mxGeometry>
        </mxCell>
        <mxCell id="uOjxGA-vQLZOeNI9uRZs-21" value="" style="edgeStyle=orthogonalEdgeStyle;rounded=0;orthogonalLoop=1;jettySize=auto;html=1;" parent="WIyWlLk6GJQsqaUBKTNV-1" source="uOjxGA-vQLZOeNI9uRZs-9" target="uOjxGA-vQLZOeNI9uRZs-14" edge="1">
          <mxGeometry relative="1" as="geometry" />
        </mxCell>
        <mxCell id="uOjxGA-vQLZOeNI9uRZs-9" value="Helyezd a kapszulát a kévágépbe!" style="rounded=0;whiteSpace=wrap;html=1;fillColor=#00FF00;" parent="WIyWlLk6GJQsqaUBKTNV-1" vertex="1">
          <mxGeometry x="135" y="290" width="130" height="40" as="geometry" />
        </mxCell>
        <mxCell id="uOjxGA-vQLZOeNI9uRZs-31" value="" style="edgeStyle=orthogonalEdgeStyle;rounded=0;orthogonalLoop=1;jettySize=auto;html=1;" parent="WIyWlLk6GJQsqaUBKTNV-1" source="uOjxGA-vQLZOeNI9uRZs-10" target="uOjxGA-vQLZOeNI9uRZs-15" edge="1">
          <mxGeometry relative="1" as="geometry" />
        </mxCell>
        <mxCell id="uOjxGA-vQLZOeNI9uRZs-10" value="Várj" style="rounded=0;whiteSpace=wrap;html=1;fillColor=#3333FF;" parent="WIyWlLk6GJQsqaUBKTNV-1" vertex="1">
          <mxGeometry x="135" y="520" width="130" height="40" as="geometry" />
        </mxCell>
        <mxCell id="uOjxGA-vQLZOeNI9uRZs-11" value="Hajtsd rá a biztonsági fedelet!" style="rounded=0;whiteSpace=wrap;html=1;fillColor=#00FF00;" parent="WIyWlLk6GJQsqaUBKTNV-1" vertex="1">
          <mxGeometry x="135" y="350" width="130" height="40" as="geometry" />
        </mxCell>
        <mxCell id="uOjxGA-vQLZOeNI9uRZs-27" value="" style="edgeStyle=orthogonalEdgeStyle;rounded=0;orthogonalLoop=1;jettySize=auto;html=1;" parent="WIyWlLk6GJQsqaUBKTNV-1" source="uOjxGA-vQLZOeNI9uRZs-12" target="uOjxGA-vQLZOeNI9uRZs-1" edge="1">
          <mxGeometry relative="1" as="geometry" />
        </mxCell>
        <mxCell id="uOjxGA-vQLZOeNI9uRZs-12" value="Idd meg a kávét!" style="rounded=0;whiteSpace=wrap;html=1;fillColor=#00FF00;" parent="WIyWlLk6GJQsqaUBKTNV-1" vertex="1">
          <mxGeometry x="135" y="740" width="130" height="40" as="geometry" />
        </mxCell>
        <mxCell id="uOjxGA-vQLZOeNI9uRZs-26" value="" style="edgeStyle=orthogonalEdgeStyle;rounded=0;orthogonalLoop=1;jettySize=auto;html=1;" parent="WIyWlLk6GJQsqaUBKTNV-1" source="uOjxGA-vQLZOeNI9uRZs-13" target="uOjxGA-vQLZOeNI9uRZs-12" edge="1">
          <mxGeometry relative="1" as="geometry" />
        </mxCell>
        <mxCell id="uOjxGA-vQLZOeNI9uRZs-13" value="Vedd ki az elkészült kávét a gépből!" style="rounded=0;whiteSpace=wrap;html=1;fillColor=#00FF00;" parent="WIyWlLk6GJQsqaUBKTNV-1" vertex="1">
          <mxGeometry x="135" y="680" width="130" height="40" as="geometry" />
        </mxCell>
        <mxCell id="uOjxGA-vQLZOeNI9uRZs-23" style="edgeStyle=orthogonalEdgeStyle;rounded=0;orthogonalLoop=1;jettySize=auto;html=1;exitX=0.5;exitY=1;exitDx=0;exitDy=0;entryX=0.5;entryY=0;entryDx=0;entryDy=0;" parent="WIyWlLk6GJQsqaUBKTNV-1" source="uOjxGA-vQLZOeNI9uRZs-14" target="uOjxGA-vQLZOeNI9uRZs-22" edge="1">
          <mxGeometry relative="1" as="geometry" />
        </mxCell>
        <mxCell id="uOjxGA-vQLZOeNI9uRZs-14" value="Kapcsold be a kávégépet!" style="rounded=0;whiteSpace=wrap;html=1;fillColor=#00FF00;" parent="WIyWlLk6GJQsqaUBKTNV-1" vertex="1">
          <mxGeometry x="135" y="410" width="130" height="40" as="geometry" />
        </mxCell>
        <mxCell id="uOjxGA-vQLZOeNI9uRZs-25" value="" style="edgeStyle=orthogonalEdgeStyle;rounded=0;orthogonalLoop=1;jettySize=auto;html=1;" parent="WIyWlLk6GJQsqaUBKTNV-1" source="uOjxGA-vQLZOeNI9uRZs-15" target="uOjxGA-vQLZOeNI9uRZs-13" edge="1">
          <mxGeometry relative="1" as="geometry" />
        </mxCell>
        <mxCell id="uOjxGA-vQLZOeNI9uRZs-28" style="edgeStyle=orthogonalEdgeStyle;rounded=0;orthogonalLoop=1;jettySize=auto;html=1;exitX=1;exitY=0.5;exitDx=0;exitDy=0;entryX=1;entryY=0.5;entryDx=0;entryDy=0;" parent="WIyWlLk6GJQsqaUBKTNV-1" source="uOjxGA-vQLZOeNI9uRZs-15" target="uOjxGA-vQLZOeNI9uRZs-22" edge="1">
          <mxGeometry relative="1" as="geometry">
            <Array as="points">
              <mxPoint x="320" y="630" />
              <mxPoint x="320" y="475" />
            </Array>
          </mxGeometry>
        </mxCell>
        <mxCell id="uOjxGA-vQLZOeNI9uRZs-15" value="&lt;font style=&quot;font-size: 10px;&quot;&gt;Elkészült a kávé?&lt;/font&gt;" style="rhombus;whiteSpace=wrap;html=1;fillColor=#FFFF00;" parent="WIyWlLk6GJQsqaUBKTNV-1" vertex="1">
          <mxGeometry x="150" y="600" width="100" height="60" as="geometry" />
        </mxCell>
        <mxCell id="uOjxGA-vQLZOeNI9uRZs-16" value="" style="ellipse;whiteSpace=wrap;html=1;aspect=fixed;fillColor=#FF0000;" parent="WIyWlLk6GJQsqaUBKTNV-1" vertex="1">
          <mxGeometry x="195" y="250" width="10" height="10" as="geometry" />
        </mxCell>
        <mxCell id="uOjxGA-vQLZOeNI9uRZs-22" value="" style="ellipse;whiteSpace=wrap;html=1;aspect=fixed;fillColor=#FF0000;" parent="WIyWlLk6GJQsqaUBKTNV-1" vertex="1">
          <mxGeometry x="195" y="470" width="10" height="10" as="geometry" />
        </mxCell>
        <mxCell id="uOjxGA-vQLZOeNI9uRZs-34" value="" style="endArrow=classic;html=1;rounded=0;exitX=0.5;exitY=1;exitDx=0;exitDy=0;entryX=0.5;entryY=0;entryDx=0;entryDy=0;" parent="WIyWlLk6GJQsqaUBKTNV-1" source="uOjxGA-vQLZOeNI9uRZs-22" target="uOjxGA-vQLZOeNI9uRZs-10" edge="1">
          <mxGeometry width="50" height="50" relative="1" as="geometry">
            <mxPoint x="390" y="690" as="sourcePoint" />
            <mxPoint x="440" y="640" as="targetPoint" />
          </mxGeometry>
        </mxCell>
      </root>
    </mxGraphModel>
  </diagram>
</mxfile>
